<svg width="24" height="24" viewBox="0 0 24 24" fill="none" xmlns="http://www.w3.org/2000/svg">
<path fill-rule="evenodd" clip-rule="evenodd" d="M9.46966 8.53148C7.11766 8.53148 5.20406 6.61788 5.20406 4.26588C5.20406 1.91388 7.11766 0 9.46966 0C11.8217 0 13.7353 1.9136 13.7353 4.2656C13.7353 6.6176 11.8217 8.53148 9.46966 8.53148ZM9.46966 0.843616C7.58278 0.843616 6.04768 2.37871 6.04768 4.2656C6.04768 6.15249 7.58278 7.68787 9.46966 7.68787C11.3565 7.68787 12.8916 6.15277 12.8916 4.26588C12.8916 2.379 11.3565 0.843616 9.46966 0.843616Z" fill="white"/>
<path fill-rule="evenodd" clip-rule="evenodd" d="M18.5171 15.0478C17.0441 15.0478 15.8456 16.2463 15.8456 17.7193C15.8456 19.1922 17.0441 20.3907 18.5171 20.3907C19.99 20.3907 21.1885 19.1922 21.1885 17.7193C21.1885 16.2463 19.99 15.0478 18.5171 15.0478ZM18.5171 19.5471C17.5092 19.5471 16.6892 18.7271 16.6892 17.7193C16.6892 16.7115 17.5092 15.8915 18.5171 15.8915C19.5249 15.8915 20.3449 16.7115 20.3449 17.7193C20.3449 18.7271 19.5249 19.5471 18.5171 19.5471Z" fill="white"/>
<path fill-rule="evenodd" clip-rule="evenodd" d="M22.7034 15.7196C22.5363 15.8867 22.6536 16.1727 22.8909 16.1727C23.5025 16.1727 24.0003 16.6701 24 17.2814V18.1568C24 18.7685 23.5025 19.2659 22.8909 19.2659C22.6539 19.2659 22.5363 19.5519 22.7028 19.7189C23.135 20.1511 23.135 20.8547 22.7028 21.2872L22.0839 21.9061C21.6517 22.3392 20.9478 22.3386 20.5156 21.9061C20.348 21.7385 20.0628 21.8564 20.0628 22.0937C20.0628 22.7053 19.5654 23.2028 18.9538 23.2028H18.0787C17.4673 23.2028 16.9699 22.7053 16.9699 22.0937C16.9699 21.8569 16.685 21.7383 16.5169 21.9061C16.0849 22.3384 15.3811 22.3389 14.9486 21.9061L14.3296 21.2872C13.8974 20.855 13.8974 20.1514 14.3296 19.7189C14.4972 19.5513 14.3791 19.2659 14.1421 19.2659C13.5307 19.2659 13.0333 18.7685 13.0333 18.1568V18.1411H11.4389L11.564 19.3635C11.5893 19.6115 11.3947 19.8283 11.1444 19.8283H7.79415C7.54331 19.8283 7.34928 19.611 7.37459 19.3635L7.49973 18.1411H0.421796C0.159432 18.1411 -0.0405053 17.9023 0.00701836 17.6431L0.690066 13.9236C1.11862 11.587 3.15455 9.89109 5.53017 9.89109H13.409C15.196 9.89109 16.7882 10.8523 17.6512 12.3224C17.7828 12.267 17.9274 12.2361 18.0792 12.2361H18.9543C19.5657 12.2361 20.0634 12.7335 20.0634 13.3449C20.0634 13.5825 20.3494 13.6992 20.5161 13.5324C20.9481 13.0999 21.6519 13.0994 22.0844 13.5324L22.7034 14.1514C23.1356 14.5836 23.1356 15.2871 22.7034 15.7196ZM0.928246 17.2975H7.58606L7.87092 14.5164L7.0737 12.9022C7.02224 12.7982 7.01606 12.6773 7.05683 12.5684L7.73875 10.7344H5.53017C3.56173 10.7344 1.87506 12.1396 1.5199 14.0757L0.928246 17.2975ZM8.26123 18.9847H10.6773L10.2167 14.4815C10.2086 14.4025 10.2229 14.3229 10.2581 14.2517L11.028 12.6919L10.3 10.7344H8.63917L7.91113 12.6919L8.68135 14.2517C8.7165 14.3229 8.73056 14.4025 8.72269 14.4815L8.26123 18.9847ZM11.0679 14.5164L11.3525 17.2975H13.0333V17.2814C13.0333 16.6701 13.5305 16.1727 14.1421 16.1727C14.3791 16.1727 14.4972 15.8872 14.3302 15.7199C13.898 15.2874 13.898 14.5838 14.3302 14.1514L14.9491 13.5324C15.3811 13.0999 16.0849 13.0994 16.5174 13.5324C16.685 13.7003 16.9704 13.5822 16.9704 13.3449C16.9704 13.2118 16.9977 13.0859 17.0407 12.9678C16.3611 11.6273 14.9761 10.7344 13.409 10.7344H11.2004L11.8823 12.5684C11.9225 12.6773 11.9166 12.7982 11.8649 12.9022L11.0679 14.5164ZM22.8912 18.4223C23.0374 18.4223 23.1567 18.3033 23.1567 18.1568L23.1564 17.2814C23.1564 17.1352 23.0374 17.0163 22.8909 17.0163C21.9045 17.0163 21.4098 15.8203 22.1072 15.1235C22.2104 15.02 22.2104 14.8516 22.1072 14.7481L21.4883 14.1291C21.3876 14.0287 21.2133 14.0293 21.1129 14.1291C20.4155 14.8271 19.2201 14.331 19.2201 13.3451C19.2201 13.1986 19.1011 13.0797 18.9546 13.0797H18.0795C17.9333 13.0797 17.8143 13.1986 17.8143 13.3449C17.8143 14.3319 16.6181 14.8262 15.9213 14.1291C15.8172 14.0251 15.6493 14.0257 15.5458 14.1291L14.9269 14.7481C14.8237 14.8516 14.8237 15.02 14.9269 15.1235C15.6249 15.8209 15.1288 17.0166 14.1429 17.0166C13.9967 17.0166 13.8777 17.1355 13.8777 17.2817V18.1571C13.8777 18.3036 13.9964 18.4226 14.1429 18.4226C15.1294 18.4226 15.6243 19.6185 14.9269 20.3156C14.8237 20.4189 14.8237 20.5873 14.9269 20.6908L15.5458 21.3097C15.6493 21.4129 15.8172 21.4135 15.9213 21.3097C16.6164 20.614 17.8143 21.1058 17.8143 22.0937C17.8143 22.2402 17.933 22.3592 18.0795 22.3592H18.9546C19.1008 22.3592 19.2201 22.2402 19.2201 22.0937C19.2201 21.107 20.416 20.6123 21.1129 21.3097C21.2133 21.4098 21.3876 21.4101 21.4883 21.3097L22.1072 20.6908C22.2104 20.5873 22.2104 20.4189 22.1072 20.3154C21.4095 19.6177 21.9053 18.4223 22.8912 18.4223Z" fill="white"/>
</svg>
