<svg width="16" height="21" viewBox="0 0 16 21" fill="none" xmlns="http://www.w3.org/2000/svg">
<path d="M7.96571 10.2034C10.2795 10.2034 12.1761 7.92758 12.1761 5.08276C12.1761 2.23793 11.5692 0 7.96571 0C4.36227 0 3.75537 2.27586 3.75537 5.12069C3.75537 7.96552 5.65192 10.2034 7.96571 10.2034Z" fill="#467599"/>
<path d="M15.8933 18.131C15.9312 18.0931 15.9312 17.8276 15.8933 18.131V18.131Z" fill="black"/>
<path d="M15.8931 17.7897C15.8172 12.8586 15.1724 11.4931 10.2414 10.5828C10.2414 10.5828 9.55862 11.4552 7.92759 11.4552C6.33448 11.4552 5.61379 10.5828 5.61379 10.5828C0.75862 11.4552 0.0758621 12.8586 0 17.6379C0 18.0172 0 18.0552 0 18.0172V18.5483C0 18.5483 1.17586 20.9 7.92759 20.9C14.6793 20.9 15.8552 18.5483 15.8552 18.5483V18.169C15.8931 18.169 15.8931 18.0931 15.8931 17.7897Z" fill="#193051"/>
</svg>
