<svg width="88" height="28" viewBox="0 0 88 28" fill="none" xmlns="http://www.w3.org/2000/svg">
<path d="M30.7874 10.5609H28.8271V0.774658H32.7477C33.1124 0.774658 33.4467 0.820246 33.781 0.911422C34.1154 1.0026 34.4193 1.13936 34.708 1.30652C34.9967 1.47367 35.2551 1.68642 35.4982 1.91436C35.7413 2.15749 35.9389 2.41583 36.106 2.70455C36.2732 2.99327 36.41 3.31239 36.5011 3.6467C36.5923 3.98101 36.6379 4.33052 36.6379 4.68003C36.6379 5.21189 36.5315 5.72855 36.334 6.19963C36.1364 6.67071 35.8477 7.09619 35.4982 7.4457C35.1487 7.79521 34.7232 8.08393 34.2521 8.28148C33.781 8.47903 33.2644 8.5854 32.7325 8.5854H30.7722V10.5609H30.7874ZM30.7874 2.73494V6.65551H32.7477C33.0212 6.65551 33.2644 6.60992 33.5075 6.50355C33.7507 6.39718 33.9482 6.26041 34.1306 6.07806C34.3129 5.89571 34.4497 5.69816 34.556 5.45503C34.6624 5.21189 34.708 4.96875 34.708 4.69523C34.708 4.4217 34.6624 4.17856 34.556 3.93543C34.4497 3.69229 34.3129 3.49474 34.1306 3.31239C33.9482 3.13004 33.7507 2.99327 33.5075 2.8869C33.2644 2.78053 33.0212 2.73494 32.7477 2.73494H30.7874Z" fill="#9FD8DB"/>
<path d="M39.479 10.5608H37.6099V0.333923H39.479V3.57067C39.7069 3.40352 39.9349 3.28195 40.1628 3.20597C40.4059 3.12999 40.6339 3.0996 40.8922 3.0996C41.3481 3.0996 41.7736 3.19077 42.1687 3.35793C42.5638 3.52508 42.9133 3.76822 43.202 4.05694C43.4907 4.36086 43.7339 4.71037 43.901 5.10547C44.0682 5.50056 44.1593 5.92605 44.1593 6.38193V10.5608H42.275V6.38193H42.2902C42.2902 6.18438 42.2598 6.01723 42.1839 5.83488C42.1079 5.66772 42.0167 5.51576 41.8799 5.39419C41.7584 5.27262 41.6064 5.16625 41.4393 5.09027C41.2721 5.01429 41.0897 4.9839 40.8922 4.9839C40.6947 4.9839 40.5123 5.01429 40.3451 5.09027C40.178 5.16625 40.026 5.25743 39.8893 5.39419C39.7677 5.51576 39.6613 5.66772 39.5853 5.83488C39.5094 6.00203 39.479 6.18438 39.479 6.38193V10.5608Z" fill="#9FD8DB"/>
<path d="M47.3357 10.5614H45.4666V3.25214H45.9224L46.5303 4.11831C46.8342 3.84478 47.1685 3.63204 47.5484 3.48008C47.9283 3.32812 48.3234 3.25214 48.7337 3.25214H50.3749V5.10605H48.7337C48.5361 5.10605 48.3538 5.13644 48.1866 5.21242C48.0195 5.2884 47.8675 5.37958 47.7308 5.51634C47.6092 5.63791 47.5028 5.78987 47.4268 5.97222C47.3509 6.13938 47.3205 6.33692 47.3205 6.51928V10.5614H47.3357Z" fill="#9FD8DB"/>
<path d="M53.4595 1.26127C53.4595 1.42842 53.4292 1.59558 53.3532 1.74754C53.2924 1.8995 53.2012 2.02107 53.0796 2.14264C52.9733 2.24901 52.8365 2.34018 52.6846 2.41616C52.5326 2.49214 52.3654 2.52254 52.1983 2.52254C52.0311 2.52254 51.864 2.49214 51.712 2.41616C51.56 2.35538 51.4233 2.2642 51.3169 2.14264C51.2105 2.03626 51.1194 1.8995 51.0434 1.74754C50.9826 1.59558 50.937 1.42842 50.937 1.26127C50.937 1.09411 50.9674 0.926956 51.0434 0.774996C51.1042 0.623036 51.1953 0.486272 51.3169 0.3799C51.4233 0.273528 51.56 0.182352 51.712 0.106372C51.864 0.045588 52.0311 0 52.1983 0C52.3654 0 52.5326 0.030392 52.6846 0.106372C52.8365 0.167156 52.9733 0.258332 53.0796 0.3799C53.186 0.486272 53.2772 0.623036 53.3532 0.774996C53.4292 0.942152 53.4595 1.09411 53.4595 1.26127ZM53.1404 10.5612H51.2561V3.25194H53.1404V10.5612Z" fill="#9FD8DB"/>
<path d="M57.4709 8.78354C57.5469 8.81394 57.6229 8.81394 57.6837 8.82913C57.7597 8.82913 57.8356 8.84433 57.8964 8.84433C58.0788 8.84433 58.2611 8.81394 58.4283 8.76835C58.5954 8.72276 58.7474 8.64678 58.8994 8.5556C59.0513 8.46443 59.1729 8.34286 59.2945 8.22129C59.416 8.08453 59.5072 7.93257 59.5832 7.78061L60.9508 9.14825C60.7837 9.39138 60.5861 9.61932 60.3582 9.81687C60.1302 10.0144 59.8871 10.1816 59.6288 10.3183C59.3704 10.4551 59.0969 10.5615 58.8082 10.6223C58.5195 10.6982 58.2155 10.7286 57.9116 10.7286C57.395 10.7286 56.9087 10.6375 56.468 10.4399C56.0121 10.2424 55.617 9.98403 55.2827 9.63452C54.9484 9.30021 54.6749 8.88992 54.4773 8.41884C54.2798 7.94776 54.1886 7.4311 54.1886 6.86885C54.1886 6.2914 54.2798 5.75954 54.4773 5.28846C54.6749 4.81739 54.9332 4.4071 55.2827 4.07278C55.617 3.73847 56.0121 3.48014 56.468 3.28259C56.9239 3.10024 57.4102 3.00906 57.9116 3.00906C58.2155 3.00906 58.5195 3.03946 58.8082 3.11544C59.0969 3.19142 59.3704 3.29779 59.644 3.43455C59.9023 3.57132 60.1454 3.73847 60.3734 3.93602C60.6013 4.13357 60.7989 4.36151 60.9812 4.60464L57.4709 8.78354ZM58.4283 4.93896C58.3371 4.90856 58.2611 4.89337 58.17 4.87817C58.0788 4.86298 58.0028 4.86298 57.9116 4.86298C57.6533 4.86298 57.4102 4.90856 57.1974 4.99974C56.9695 5.09092 56.7719 5.22768 56.6048 5.39484C56.4376 5.56199 56.3008 5.77474 56.2097 6.01787C56.1185 6.26101 56.0729 6.53454 56.0729 6.83846C56.0729 6.89924 56.0729 6.99042 56.0881 7.0664C56.0881 7.15757 56.1033 7.23355 56.1185 7.32473C56.1337 7.4159 56.1489 7.49188 56.1793 7.58306C56.1945 7.65904 56.2249 7.73502 56.2705 7.7958L58.4283 4.93896Z" fill="#9FD8DB"/>
<path d="M63.7772 10.5611H61.9081V3.25184H62.364L62.9718 3.96606C63.2757 3.69253 63.61 3.47978 63.9899 3.32782C64.3698 3.17586 64.7649 3.09988 65.1752 3.09988C65.6159 3.09988 66.0414 3.19106 66.4365 3.35822C66.8316 3.52537 67.1811 3.76851 67.4698 4.05723C67.7585 4.36115 68.0017 4.71066 68.1688 5.10576C68.336 5.50085 68.4272 5.92634 68.4272 6.38222V10.5611H66.5581V6.38222C66.5581 6.18467 66.5277 6.01752 66.4517 5.83516C66.3757 5.66801 66.2845 5.51605 66.1478 5.39448C66.0262 5.27291 65.8742 5.16654 65.7071 5.09056C65.5399 5.01458 65.3576 4.98419 65.1752 4.98419C64.9777 4.98419 64.7953 5.01458 64.6282 5.09056C64.461 5.16654 64.3091 5.25772 64.1723 5.39448C64.0507 5.51605 63.9443 5.66801 63.8684 5.83516C63.7924 6.00232 63.762 6.18467 63.762 6.38222V10.5611H63.7772Z" fill="#9FD8DB"/>
<path d="M76.8312 10.5608H76.3753L75.6459 9.5579C75.4636 9.70986 75.2812 9.86182 75.0837 9.99858C74.8861 10.1353 74.6734 10.2569 74.4607 10.3633C74.2479 10.4697 74.02 10.5456 73.792 10.6064C73.5641 10.6672 73.321 10.6976 73.093 10.6976C72.5763 10.6976 72.0901 10.6064 71.6494 10.4089C71.1935 10.2113 70.7984 9.95299 70.4641 9.60348C70.1298 9.25397 69.8563 8.85888 69.6587 8.3878C69.4612 7.91673 69.37 7.40006 69.37 6.85301C69.37 6.30595 69.4612 5.78929 69.6587 5.31821C69.8563 4.84714 70.1146 4.43684 70.4641 4.08734C70.7984 3.73783 71.1935 3.4643 71.6494 3.28195C72.1053 3.0844 72.5915 2.99322 73.093 2.99322C73.2602 2.99322 73.4273 3.00842 73.6097 3.03881C73.792 3.0692 73.9592 3.11479 74.1263 3.17558C74.2935 3.23636 74.4455 3.31234 74.5974 3.41871C74.7494 3.52508 74.8709 3.64665 74.9621 3.78342V0.333923H76.8464V10.5608H76.8312ZM74.9621 6.83781C74.9621 6.57948 74.9165 6.33634 74.8102 6.09321C74.719 5.85007 74.5822 5.63733 74.4151 5.45498C74.2479 5.27262 74.0504 5.12066 73.8224 5.01429C73.5945 4.90792 73.3513 4.84714 73.1082 4.84714C72.8651 4.84714 72.6067 4.89272 72.394 4.9839C72.1661 5.07508 71.9685 5.21184 71.8014 5.379C71.6342 5.54615 71.4974 5.7589 71.4063 6.00203C71.3151 6.24517 71.2695 6.5187 71.2695 6.83781C71.2695 7.11134 71.3151 7.35448 71.4063 7.59761C71.4974 7.84075 71.6342 8.05349 71.8014 8.23584C71.9685 8.4182 72.1661 8.55496 72.394 8.66133C72.6219 8.7677 72.8651 8.81329 73.1082 8.81329C73.3513 8.81329 73.6097 8.75251 73.8224 8.64614C74.0504 8.53976 74.2479 8.3878 74.4151 8.20545C74.5822 8.0231 74.719 7.81036 74.8102 7.56722C74.9165 7.33928 74.9621 7.09614 74.9621 6.83781Z" fill="#9FD8DB"/>
<path d="M80.144 0.333923H78.2596V10.5608H80.144V0.333923Z" fill="#9FD8DB"/>
<path d="M83.3196 13.3575V11.4732L84.3529 11.4884C84.5353 11.4884 84.7176 11.458 84.8848 11.3972C85.052 11.3364 85.2039 11.2604 85.3559 11.1541C85.4926 11.0477 85.6294 10.9261 85.7358 10.7894C85.8422 10.6526 85.9333 10.4854 86.0093 10.3183C85.8118 10.4095 85.599 10.4854 85.3863 10.5766C85.1735 10.6678 84.9608 10.7134 84.748 10.7134C84.2922 10.7134 83.8667 10.6374 83.4716 10.4702C83.0765 10.3183 82.727 10.0903 82.4231 9.78642C82.1191 9.49769 81.8912 9.13299 81.724 8.7075C81.5569 8.28201 81.4657 7.81094 81.4657 7.29427V3.25214H83.3196V7.29427C83.3196 7.5526 83.35 7.78054 83.426 7.97809C83.502 8.17564 83.6083 8.3276 83.7299 8.46436C83.8515 8.60113 84.0034 8.6923 84.1706 8.75309C84.3378 8.81387 84.5201 8.84426 84.7176 8.84426C84.9152 8.84426 85.0823 8.79868 85.2647 8.7075C85.4319 8.61632 85.5838 8.49476 85.7054 8.35799C85.827 8.20603 85.9333 8.05407 86.0093 7.85652C86.0853 7.67417 86.1157 7.47662 86.1157 7.27908V3.25214H88V9.64965C88 10.1663 87.8936 10.6526 87.6961 11.0933C87.4985 11.5492 87.2402 11.9442 86.8907 12.2786C86.5564 12.6129 86.1613 12.8864 85.7054 13.0839C85.2495 13.2815 84.7784 13.3727 84.2618 13.3727L83.3196 13.3575Z" fill="#9FD8DB"/>
<path d="M30.7874 24.5569H28.8271V14.7555H32.7477C33.1124 14.7555 33.4467 14.8011 33.781 14.8923C34.1154 14.9834 34.4193 15.1202 34.708 15.2874C34.9967 15.4545 35.2551 15.6673 35.4982 15.8952C35.7413 16.1383 35.9389 16.3967 36.106 16.6854C36.2732 16.9741 36.41 17.2932 36.5011 17.6275C36.5923 17.9618 36.6379 18.3114 36.6379 18.6609C36.6379 19.1927 36.5315 19.7094 36.334 20.1805C36.1364 20.6515 35.8477 21.077 35.4982 21.4265C35.1487 21.776 34.7232 22.0648 34.2521 22.2623C33.781 22.4599 33.2644 22.5662 32.7325 22.5662H30.7722V24.5569H30.7874ZM30.7874 16.7158V20.6363H32.7477C33.0212 20.6363 33.2644 20.5908 33.5075 20.4844C33.7507 20.378 33.9482 20.2412 34.1306 20.0589C34.3129 19.8765 34.4497 19.679 34.556 19.4359C34.6624 19.1927 34.708 18.9496 34.708 18.6761C34.708 18.4025 34.6624 18.1594 34.556 17.9163C34.4497 17.6731 34.3129 17.4756 34.1306 17.2932C33.9482 17.1109 33.7507 16.9741 33.5075 16.8677C33.2644 16.7614 33.0212 16.7158 32.7477 16.7158H30.7874Z" fill="#DFF4ED"/>
<path d="M39.479 24.5564H37.6099V14.3295H39.479V17.5662C39.7069 17.3991 39.9349 17.2775 40.1628 17.2015C40.4059 17.1255 40.6339 17.0951 40.8922 17.0951C41.3481 17.0951 41.7736 17.1863 42.1687 17.3535C42.5638 17.5206 42.9133 17.7638 43.202 18.0525C43.4907 18.3564 43.7339 18.7059 43.901 19.101C44.0682 19.4961 44.1593 19.9216 44.1593 20.3775V24.5564H42.275V20.3775H42.2902C42.2902 20.1799 42.2598 20.0128 42.1839 19.8304C42.1079 19.6633 42.0167 19.5113 41.8799 19.3897C41.7584 19.2682 41.6064 19.1618 41.4393 19.0858C41.2721 19.0098 41.0897 18.9794 40.8922 18.9794C40.6947 18.9794 40.5123 19.0098 40.3451 19.0858C40.178 19.1618 40.026 19.253 39.8893 19.3897C39.7677 19.5113 39.6613 19.6633 39.5853 19.8304C39.5094 19.9976 39.479 20.1799 39.479 20.3775V24.5564Z" fill="#DFF4ED"/>
<path d="M47.6699 15.2568C47.6699 15.424 47.6395 15.5911 47.5635 15.7431C47.5027 15.895 47.4115 16.0318 47.29 16.1382C47.1836 16.2446 47.0468 16.3357 46.8949 16.4117C46.7429 16.4725 46.5758 16.5181 46.4086 16.5181C46.2414 16.5181 46.0743 16.4877 45.9223 16.4117C45.7704 16.3509 45.6336 16.2597 45.5272 16.1382C45.4209 16.0318 45.3297 15.895 45.2537 15.7431C45.1929 15.5911 45.1473 15.424 45.1473 15.2568C45.1473 15.0897 45.1777 14.9225 45.2537 14.7705C45.3145 14.6186 45.4057 14.4818 45.5272 14.3754C45.6336 14.2691 45.7704 14.1779 45.9223 14.1019C46.0743 14.0411 46.2414 13.9955 46.4086 13.9955C46.5758 13.9955 46.7429 14.0259 46.8949 14.1019C47.0468 14.1627 47.1836 14.2539 47.29 14.3754C47.3963 14.4818 47.4875 14.6186 47.5635 14.7705C47.6395 14.9225 47.6699 15.0897 47.6699 15.2568ZM47.3508 24.5568H45.4665V17.2475H47.3508V24.5568Z" fill="#DFF4ED"/>
<path d="M52.7909 24.5568H48.536V22.7029H52.7909C52.9125 22.7029 53.034 22.6573 53.1252 22.5661C53.2164 22.4749 53.262 22.3686 53.262 22.2318C53.262 22.095 53.2164 22.0191 53.1252 21.9735C53.034 21.9279 52.9277 21.9127 52.7909 21.9127H50.8458C50.5267 21.9127 50.2228 21.8519 49.934 21.7303C49.6453 21.6088 49.4022 21.4416 49.1894 21.2289C48.9767 21.0161 48.8095 20.773 48.688 20.4843C48.5664 20.1955 48.5056 19.9068 48.5056 19.5725C48.5056 19.2534 48.5664 18.9495 48.688 18.6608C48.8095 18.372 48.9767 18.1289 49.1894 17.9162C49.4022 17.7034 49.6453 17.5362 49.934 17.4147C50.2228 17.2931 50.5115 17.2323 50.8458 17.2323H54.6296V19.0862H50.8458C50.7242 19.0862 50.6027 19.1318 50.5115 19.223C50.4203 19.3142 50.3747 19.4206 50.3747 19.5573C50.3747 19.6941 50.4203 19.8005 50.5115 19.8916C50.6027 19.9828 50.709 20.0284 50.8458 20.0284H52.7909C53.11 20.0284 53.4139 20.0892 53.6875 20.1956C53.9762 20.3019 54.2193 20.4539 54.4321 20.6362C54.6448 20.8338 54.812 21.0617 54.9335 21.3201C55.0551 21.5936 55.1159 21.8823 55.1159 22.2014C55.1159 22.5205 55.0551 22.8245 54.9335 23.1132C54.812 23.3867 54.6448 23.645 54.4321 23.8578C54.2193 24.0705 53.9762 24.2377 53.6875 24.3593C53.4139 24.496 53.11 24.5568 52.7909 24.5568Z" fill="#DFF4ED"/>
<path d="M57.9729 24.5564H56.1038V14.3295H57.9729V17.5662C58.2008 17.3991 58.4287 17.2775 58.6567 17.2015C58.8998 17.1255 59.1278 17.0951 59.3861 17.0951C59.842 17.0951 60.2675 17.1863 60.6626 17.3535C61.0577 17.5206 61.4072 17.7638 61.6959 18.0525C61.9846 18.3564 62.2277 18.7059 62.3949 19.101C62.5621 19.4961 62.6532 19.9216 62.6532 20.3775V24.5564H60.7689V20.3775H60.7841C60.7841 20.1799 60.7537 20.0128 60.6778 19.8304C60.6018 19.6633 60.5106 19.5113 60.3738 19.3897C60.2523 19.2682 60.1003 19.1618 59.9332 19.0858C59.766 19.0098 59.5836 18.9794 59.4013 18.9794C59.2037 18.9794 59.0214 19.0098 58.8542 19.0858C58.6871 19.1618 58.5351 19.253 58.3984 19.3897C58.2768 19.5113 58.1704 19.6633 58.0944 19.8304C58.0185 19.9976 57.9881 20.1799 57.9881 20.3775V24.5564H57.9729Z" fill="#DFF4ED"/>
<path d="M66.163 15.2568C66.163 15.424 66.1327 15.5911 66.0567 15.7431C65.9959 15.895 65.9047 16.0318 65.7831 16.1382C65.6616 16.2446 65.54 16.3357 65.388 16.4117C65.2361 16.4725 65.0689 16.5181 64.9018 16.5181C64.7346 16.5181 64.5675 16.4877 64.4155 16.4117C64.2635 16.3509 64.1268 16.2597 64.0204 16.1382C63.914 16.0318 63.8229 15.895 63.7469 15.7431C63.6861 15.5911 63.6405 15.424 63.6405 15.2568C63.6405 15.0897 63.6709 14.9225 63.7469 14.7705C63.8077 14.6186 63.8988 14.4818 64.0204 14.3754C64.1268 14.2691 64.2635 14.1779 64.4155 14.1019C64.5675 14.0411 64.7346 13.9955 64.9018 13.9955C65.0689 13.9955 65.2361 14.0259 65.388 14.1019C65.54 14.1627 65.6768 14.2539 65.7831 14.3754C65.8895 14.4818 65.9807 14.6186 66.0567 14.7705C66.1327 14.9225 66.163 15.0897 66.163 15.2568ZM65.8439 24.5568H63.9596V17.2475H65.8439V24.5568Z" fill="#DFF4ED"/>
<path d="M69.1262 24.5567H67.2571V17.2474H67.713L68.3208 17.9616C68.6247 17.6881 68.959 17.4753 69.3389 17.3234C69.7188 17.1714 70.1139 17.0954 70.5242 17.0954C70.9649 17.0954 71.3904 17.1866 71.7855 17.3538C72.1806 17.5209 72.5301 17.7641 72.8188 18.0528C73.1075 18.3567 73.3507 18.7062 73.5178 19.1013C73.685 19.4964 73.7762 19.9219 73.7762 20.3778V24.5567H71.9071V20.3778C71.9071 20.1802 71.8767 20.0131 71.8007 19.8307C71.7247 19.6636 71.6335 19.5116 71.4968 19.39C71.3752 19.2685 71.2232 19.1621 71.0561 19.0861C70.8889 19.0101 70.7066 18.9797 70.5242 18.9797C70.3267 18.9797 70.1443 19.0101 69.9772 19.0861C69.81 19.1621 69.658 19.2533 69.5213 19.39C69.3997 19.5116 69.2933 19.6636 69.2174 19.8307C69.1414 19.9979 69.111 20.1802 69.111 20.3778V24.5567H69.1262Z" fill="#DFF4ED"/>
<path d="M82.2104 23.6298C82.2104 24.1464 82.1192 24.6327 81.9217 25.0734C81.7241 25.5293 81.4658 25.9244 81.1163 26.2587C80.782 26.593 80.3869 26.8665 79.931 27.0641C79.4751 27.2616 78.9888 27.3528 78.4874 27.3528L77.5452 27.3376V25.4685L78.4722 25.4837C78.7609 25.4837 79.004 25.4533 79.2168 25.3773C79.4143 25.3013 79.5967 25.1949 79.7334 25.0734C79.8702 24.9366 79.9918 24.7998 80.0678 24.6327C80.1589 24.4655 80.2197 24.2832 80.2653 24.1008C80.1893 24.2224 80.0829 24.3136 79.9462 24.3896C79.8094 24.4655 79.6575 24.5263 79.4903 24.5719C79.3231 24.6175 79.156 24.6479 78.9736 24.6783C78.7913 24.6935 78.6241 24.7087 78.4722 24.7087C77.9555 24.7087 77.4692 24.6175 77.0285 24.4351C76.5727 24.2528 76.1776 24.0097 75.8433 23.6753C75.5089 23.341 75.2354 22.9459 75.0379 22.4597C74.8403 21.9886 74.7491 21.4415 74.7491 20.8337C74.7491 20.2866 74.8403 19.77 75.0379 19.2989C75.2354 18.8278 75.5089 18.4175 75.8433 18.068C76.1776 17.7185 76.5727 17.445 77.0285 17.2626C77.4844 17.0651 77.9707 16.9739 78.4722 16.9739C78.7153 16.9739 78.9432 17.0043 79.1712 17.0651C79.3991 17.1259 79.6271 17.2018 79.8398 17.3082C80.0526 17.4146 80.2653 17.5362 80.4628 17.6729C80.6604 17.8097 80.8427 17.9616 81.0251 18.1288L81.7545 17.2626H82.2104V23.6298ZM80.3261 20.8337C80.3261 20.5754 80.2805 20.3322 80.1741 20.0891C80.0829 19.846 79.9462 19.6332 79.779 19.4509C79.6119 19.2685 79.4143 19.1165 79.1864 19.0102C78.9584 18.9038 78.7153 18.843 78.4722 18.843C78.229 18.843 77.9707 18.8886 77.758 18.9798C77.53 19.071 77.3325 19.1925 77.1653 19.3597C76.9982 19.5268 76.8614 19.7396 76.7702 19.9827C76.679 20.2259 76.6334 20.5146 76.6334 20.8337C76.6334 21.1376 76.679 21.4111 76.7702 21.6543C76.8614 21.8974 76.9982 22.1102 77.1653 22.2773C77.3325 22.4445 77.53 22.5812 77.758 22.6724C77.9859 22.7636 78.229 22.8092 78.4722 22.8092C78.7153 22.8092 78.9736 22.7484 79.1864 22.642C79.4143 22.5356 79.6119 22.3837 79.779 22.2013C79.9462 22.019 80.0829 21.8062 80.1741 21.5631C80.2805 21.3352 80.3261 21.092 80.3261 20.8337Z" fill="#DFF4ED"/>
<path d="M21.32 0.0152893H11.2754H1.21568C0.547056 0.0152893 0 0.562345 0 1.23097V9.20887C0 16.427 4.74115 22.551 11.2754 24.6176C12.4759 24.2377 14.1019 23.5539 15.7886 22.3534C15.7886 22.3534 18.2352 20.5907 19.8916 18.0681C20.0587 17.8098 20.2259 17.5363 20.2259 17.5363C20.3322 17.3539 20.4386 17.1716 20.545 16.9892C20.5906 16.898 20.6514 16.8069 20.697 16.7157C20.7881 16.5333 20.8945 16.3358 20.9857 16.1534C21.0617 16.0015 21.1224 15.8495 21.1984 15.6976C21.2288 15.6216 21.2744 15.5304 21.3048 15.4544C21.5631 14.8314 21.7911 14.1932 21.9582 13.5397C22.0038 13.3726 22.0494 13.2054 22.095 13.0383C22.2317 12.4608 22.3381 11.8834 22.4141 11.2907C22.4141 11.2451 22.4293 11.1995 22.4293 11.154C22.5053 10.5157 22.5509 9.87749 22.5509 9.22407V1.23097C22.5357 0.562345 21.9886 0.0152893 21.32 0.0152893ZM13.8284 16.0167C14.0259 16.2142 13.8891 16.5333 13.6156 16.5333H11.2754H8.92005C8.64652 16.5333 8.50976 16.199 8.70731 16.0167L10.7132 14.1628L10.3333 13.7677C9.25436 12.5824 8.58574 11.0172 8.58574 9.28485C8.58574 7.33976 9.42152 5.59222 10.7588 4.37654C11.0475 4.11821 11.4882 4.11821 11.7769 4.37654C13.1141 5.59222 13.9499 7.33976 13.9499 9.28485C13.9499 11.0172 13.2965 12.5824 12.2024 13.7677L11.8225 14.1628L13.8284 16.0167Z" fill="#9FD8DB"/>
<path d="M22.5356 1.23103V9.20893C22.5356 9.86236 22.49 10.5158 22.4141 11.1388C22.4141 11.1844 22.3989 11.23 22.3989 11.2756C22.3229 11.8682 22.2165 12.4609 22.0797 13.0231C22.0342 13.1903 21.9886 13.3574 21.943 13.5246C21.7606 14.178 21.5479 14.8163 21.2896 15.4241C21.2592 15.5153 21.2136 15.5913 21.1832 15.6824C21.1224 15.8344 21.0464 15.9863 20.9704 16.1383C20.8793 16.3359 20.7881 16.5182 20.6817 16.7006C20.6361 16.7917 20.5753 16.8829 20.5298 16.9741C20.4234 17.1564 20.317 17.3388 20.2106 17.5211C20.2106 17.5211 20.0435 17.7947 19.8763 18.053C18.22 20.5755 15.7734 22.3383 15.7734 22.3383C14.9224 22.9461 14.1018 23.4172 13.3268 23.7819C12.5519 24.1466 11.8528 24.4201 11.245 24.6025V16.503H13.5852C13.8587 16.503 13.9955 16.1687 13.7979 15.9863L11.8224 14.1628L12.2023 13.7677C13.2813 12.5824 13.9347 11.0173 13.9347 9.28491C13.9347 7.33982 13.0989 5.59228 11.7617 4.3766C11.6249 4.23984 11.4425 4.17905 11.245 4.17905V0.0153503H21.3047C21.9886 0.0153503 22.5356 0.562406 22.5356 1.23103Z" fill="#DFF4ED"/>
</svg>
